# xmcd
#
# Track frame offsets:
#	150
#	16500
#	34972
#	63093
#	84570
#	112460
#	128941
#	165339
#	184067
#	207566
#
# Disc length: 3013 seconds
#
# Revision: 1
# Processed by: cddbd v1.5.2PL0 Copyright (c) Steve Scherf et al.
# Submitted via: audiograbber 1.83.01
#
DISCID=840bc30a
DTITLE=Van Morrison - Enlightenment
DYEAR=1990
DGENRE=R&B
TTITLE0=Real Real Gone
TTITLE1=Enlightenment
TTITLE2=So Quiet In Here
TTITLE3=Avalon Of The Heart
TTITLE4=See Me Trough
TTITLE5=Youth Of 1000 Summers
TTITLE6=In The Day Before Rock'n Roll
TTITLE7=Start All Over Again
TTITLE8=She's My Baby
TTITLE9=Memories
EXTD=
EXTT0=
EXTT1=
EXTT2=
EXTT3=
EXTT4=
EXTT5=
EXTT6=
EXTT7=
EXTT8=
EXTT9=
PLAYORDER=
